<svg width="131" height="103" viewBox="0 0 131 103" fill="none" xmlns="http://www.w3.org/2000/svg">
<ellipse rx="18.0616" ry="9.14551" transform="matrix(0.634035 -0.773305 0.771855 0.635798 66.251 35.2182)" fill="#283048"/>
<ellipse rx="2.85769" ry="13.1079" transform="matrix(0.761184 0.648535 -0.646786 0.762672 67.1561 36.3276)" fill="#E88F4E"/>
<rect width="13.2957" height="19.7809" rx="6.64783" transform="matrix(0.786737 0.617288 -0.61551 0.788129 91.2801 24.6104)" fill="#283048"/>
<ellipse rx="5.20957" ry="1.10756" transform="matrix(0.629087 -0.777335 0.775901 0.630855 92.7227 38.1187)" fill="#E88F4E"/>
<ellipse rx="4.76153" ry="5.98487" transform="matrix(0.829696 0.558215 -0.556428 0.830896 76.691 10.6308)" fill="#283048"/>
<line y1="-2.5" x2="10.849" y2="-2.5" transform="matrix(0.894858 0.446351 -0.444689 0.895685 85.3776 7.72726)" stroke="#283048" stroke-width="5"/>
<line y1="-2.5" x2="10.9075" y2="-2.5" transform="matrix(0.999239 0.0390084 -0.0374896 0.999297 60.2861 5.02597)" stroke="#283048" stroke-width="5"/>
<path d="M29.9188 51.9887C13.3805 51.1556 13.9713 45.3865 20.3829 32.217C-2.71173 60.2752 -4.68663 69.4725 21.9073 67.9438L102.007 54.528L29.9188 51.9887Z" fill="#283048"/>
<path d="M31.0804 29.188C31.5604 29.188 32.1124 29.332 32.7364 29.62C33.3604 29.908 33.9124 30.28 34.3924 30.736C34.2724 29.776 34.1164 28.876 33.9244 28.036C33.7564 27.172 33.4924 26.284 33.1324 25.372C32.7964 24.46 32.3404 23.464 31.7644 22.384C31.1884 21.304 30.4684 20.068 29.6044 18.676C29.6764 18.46 29.8324 18.208 30.0724 17.92C30.3364 17.632 30.6244 17.368 30.9364 17.128C31.2724 16.864 31.6084 16.636 31.9444 16.444C32.3044 16.252 32.6404 16.132 32.9524 16.084C33.6244 16.828 34.2604 17.764 34.8604 18.892C35.4604 19.996 35.9884 21.196 36.4444 22.492C36.9004 23.764 37.2484 25.084 37.4884 26.452C37.7524 27.82 37.8844 29.128 37.8844 30.376C37.8844 31.624 37.7404 32.908 37.4524 34.228C37.1884 35.548 36.8044 36.844 36.3004 38.116C35.8204 39.364 35.2564 40.552 34.6084 41.68C33.9604 42.808 33.2524 43.816 32.4844 44.704C31.7404 45.592 30.9604 46.312 30.1444 46.864C29.3284 47.44 28.5124 47.8 27.6964 47.944C26.0404 47.752 24.7684 47.212 23.8804 46.324C23.0164 45.46 22.5844 44.26 22.5844 42.724C22.5844 41.908 22.7044 41.02 22.9444 40.06C23.2084 39.1 23.5444 38.152 23.9524 37.216C24.3844 36.256 24.8764 35.332 25.4284 34.444C26.0044 33.532 26.6044 32.716 27.2284 31.996C27.8764 31.276 28.5244 30.664 29.1724 30.16C29.8204 29.656 30.4564 29.332 31.0804 29.188ZM27.4084 46.504C28.2484 46.216 29.0884 45.58 29.9284 44.596C30.7684 43.612 31.5244 42.46 32.1964 41.14C32.8684 39.796 33.4084 38.368 33.8164 36.856C34.2484 35.32 34.4644 33.844 34.4644 32.428C34.4644 32.02 34.4644 31.768 34.4644 31.672C34.4644 31.576 34.4524 31.48 34.4284 31.384C33.8524 31.624 33.2404 32.032 32.5924 32.608C31.9444 33.184 31.2964 33.856 30.6484 34.624C30.0004 35.368 29.3884 36.184 28.8124 37.072C28.2364 37.96 27.7204 38.848 27.2644 39.736C26.8084 40.624 26.4484 41.476 26.1844 42.292C25.9204 43.108 25.7884 43.828 25.7884 44.452C25.7884 45.652 26.3284 46.336 27.4084 46.504ZM37.9426 45.28C38.0626 44.584 38.2666 43.672 38.5546 42.544C38.8666 41.392 39.2266 40.18 39.6346 38.908C40.0426 37.612 40.4746 36.316 40.9306 35.02C41.3866 33.724 41.8306 32.56 42.2626 31.528C42.5746 30.784 42.8506 30.208 43.0906 29.8C43.3306 29.368 43.5946 29.008 43.8826 28.72C44.2186 28.768 44.5666 28.852 44.9266 28.972C45.2866 29.092 45.6346 29.236 45.9706 29.404C46.3066 29.572 46.6066 29.752 46.8706 29.944C47.1346 30.112 47.3386 30.28 47.4826 30.448C46.8346 31.216 46.2586 32.092 45.7546 33.076C45.2746 34.06 44.7826 35.32 44.2786 36.856C45.5746 35.704 46.7146 34.6 47.6986 33.544C48.7066 32.488 49.6426 31.312 50.5066 30.016C50.6506 29.896 50.9026 29.836 51.2626 29.836C51.5986 29.836 51.9226 29.896 52.2346 30.016C52.5466 30.112 52.7626 30.256 52.8826 30.448C52.4506 31.6 52.2346 32.74 52.2346 33.868C52.2346 34.924 52.3906 35.716 52.7026 36.244C52.6786 36.388 52.5106 36.664 52.1986 37.072C51.9106 37.48 51.5866 37.864 51.2266 38.224C50.5786 37.888 50.0026 37.432 49.4986 36.856C48.9946 36.256 48.6226 35.608 48.3826 34.912C47.2546 35.704 46.2946 36.484 45.5026 37.252C44.7106 37.996 44.0266 38.836 43.4506 39.772C42.8986 40.684 42.4186 41.74 42.0106 42.94C41.6266 44.14 41.2546 45.568 40.8946 47.224C40.6786 47.2 40.4146 47.116 40.1026 46.972C39.8146 46.852 39.5146 46.696 39.2026 46.504C38.9146 46.312 38.6506 46.108 38.4106 45.892C38.1706 45.676 38.0146 45.472 37.9426 45.28ZM125.603 34.948C125.219 34.972 124.751 35.224 124.199 35.704C123.647 36.16 123.047 36.76 122.399 37.504C121.775 38.224 121.115 39.028 120.419 39.916C119.747 40.804 119.087 41.692 118.439 42.58C117.815 43.444 117.227 44.26 116.675 45.028C116.123 45.796 115.655 46.408 115.271 46.864C114.743 46.648 114.287 46.336 113.903 45.928C113.519 45.496 113.243 44.968 113.075 44.344C113.195 43.6 113.363 42.832 113.579 42.04C113.795 41.224 114.071 40.384 114.407 39.52C114.767 38.656 115.199 37.756 115.703 36.82C116.231 35.86 116.867 34.852 117.611 33.796C117.251 33.82 116.759 34.084 116.135 34.588C115.511 35.068 114.839 35.704 114.119 36.496C113.399 37.264 112.655 38.14 111.887 39.124C111.119 40.084 110.399 41.032 109.727 41.968C108.839 43.216 108.095 44.308 107.495 45.244C106.919 46.18 106.499 46.732 106.235 46.9C105.611 46.444 105.179 45.952 104.939 45.424C104.699 44.896 104.519 44.308 104.399 43.66C104.423 43.084 104.507 42.364 104.651 41.5C104.819 40.636 105.047 39.748 105.335 38.836C105.887 37.084 106.595 35.344 107.459 33.616C108.347 31.888 109.199 30.304 110.015 28.864C110.687 29.008 111.287 29.236 111.815 29.548C112.367 29.86 112.943 30.316 113.543 30.916C113.303 31.66 112.931 32.452 112.427 33.292C111.923 34.108 111.395 34.972 110.843 35.884C110.291 36.796 109.787 37.732 109.331 38.692C108.875 39.652 108.575 40.624 108.431 41.608C109.103 40.648 109.895 39.544 110.807 38.296C111.743 37.048 112.691 35.872 113.651 34.768C114.635 33.664 115.607 32.728 116.567 31.96C117.527 31.192 118.391 30.808 119.159 30.808C119.447 30.808 119.759 30.856 120.095 30.952C120.431 31.048 120.743 31.168 121.031 31.312C121.319 31.456 121.559 31.6 121.751 31.744C121.943 31.864 122.051 31.96 122.075 32.032C121.955 32.512 121.667 33.172 121.211 34.012C120.779 34.828 120.311 35.692 119.807 36.604C119.303 37.516 118.835 38.404 118.403 39.268C117.971 40.108 117.719 40.78 117.647 41.284C118.823 39.676 119.927 38.224 120.959 36.928C121.991 35.608 122.963 34.48 123.875 33.544C124.787 32.608 125.627 31.888 126.395 31.384C127.187 30.88 127.931 30.628 128.627 30.628C129.107 30.628 129.551 30.76 129.959 31.024C130.391 31.264 130.691 31.624 130.859 32.104C130.643 32.824 130.283 33.688 129.779 34.696C129.299 35.704 128.807 36.772 128.303 37.9C127.799 39.004 127.343 40.096 126.935 41.176C126.551 42.256 126.359 43.228 126.359 44.092C126.359 44.596 126.431 44.932 126.575 45.1C126.719 45.244 126.923 45.316 127.187 45.316C127.475 45.316 127.739 45.268 127.979 45.172C128.243 45.052 128.435 44.992 128.555 44.992C128.699 45.088 128.783 45.208 128.807 45.352C128.831 45.496 128.843 45.628 128.843 45.748C128.363 46.132 127.871 46.444 127.367 46.684C126.863 46.948 126.299 47.08 125.675 47.08C125.099 47.08 124.619 46.984 124.235 46.792C123.875 46.6 123.575 46.336 123.335 46C123.095 45.664 122.927 45.28 122.831 44.848C122.735 44.416 122.687 43.948 122.687 43.444C122.687 42.628 122.795 41.824 123.011 41.032C123.227 40.216 123.479 39.448 123.767 38.728C124.079 37.984 124.403 37.3 124.739 36.676C125.075 36.028 125.363 35.452 125.603 34.948Z" fill="#BD5306"/>
</svg>
